<svg id="visual" viewBox="0 0 1100 200" width="1100" height="200" xmlns="http://www.w3.org/2000/svg" xmlns:xlink="http://www.w3.org/1999/xlink" version="1.1"><rect x="0" y="0" width="1100" height="200" fill="#ffff00"></rect><path d="M0 154L20.3 154C40.7 154 81.3 154 122 147.2C162.7 140.3 203.3 126.7 244.2 127.2C285 127.7 326 142.3 366.8 148.7C407.7 155 448.3 153 489 145.3C529.7 137.7 570.3 124.3 611 117.7C651.7 111 692.3 111 733.2 119.8C774 128.7 815 146.3 855.8 156C896.7 165.7 937.3 167.3 978 166.5C1018.7 165.7 1059.3 162.3 1079.7 160.7L1100 159L1100 201L1079.7 201C1059.3 201 1018.7 201 978 201C937.3 201 896.7 201 855.8 201C815 201 774 201 733.2 201C692.3 201 651.7 201 611 201C570.3 201 529.7 201 489 201C448.3 201 407.7 201 366.8 201C326 201 285 201 244.2 201C203.3 201 162.7 201 122 201C81.3 201 40.7 201 20.3 201L0 201Z" fill="#808080" stroke-linecap="round" stroke-linejoin="miter"></path></svg>