<svg id="visual" viewBox="0 0 960 540" width="960" height="540" xmlns="http://www.w3.org/2000/svg" xmlns:xlink="http://www.w3.org/1999/xlink" version="1.1"><rect x="0" y="0" width="960" height="540" fill="#e6e6e6"></rect><path d="M0 344L16 350C32 356 64 368 96 379.8C128 391.7 160 403.3 192 403.8C224 404.3 256 393.7 288 395.3C320 397 352 411 384 414.3C416 417.7 448 410.3 480 400.8C512 391.3 544 379.7 576 375.7C608 371.7 640 375.3 672 373C704 370.7 736 362.3 768 365.7C800 369 832 384 864 389.3C896 394.7 928 390.3 944 388.2L960 386L960 541L944 541C928 541 896 541 864 541C832 541 800 541 768 541C736 541 704 541 672 541C640 541 608 541 576 541C544 541 512 541 480 541C448 541 416 541 384 541C352 541 320 541 288 541C256 541 224 541 192 541C160 541 128 541 96 541C64 541 32 541 16 541L0 541Z" fill="#5c4a4a"></path><path d="M0 476L16 475.8C32 475.7 64 475.3 96 473.7C128 472 160 469 192 464.3C224 459.7 256 453.3 288 444.7C320 436 352 425 384 424.5C416 424 448 434 480 437C512 440 544 436 576 433.3C608 430.7 640 429.3 672 435.3C704 441.3 736 454.7 768 461.2C800 467.7 832 467.3 864 470C896 472.7 928 478.3 944 481.2L960 484L960 541L944 541C928 541 896 541 864 541C832 541 800 541 768 541C736 541 704 541 672 541C640 541 608 541 576 541C544 541 512 541 480 541C448 541 416 541 384 541C352 541 320 541 288 541C256 541 224 541 192 541C160 541 128 541 96 541C64 541 32 541 16 541L0 541Z" fill="#aeadad"></path></svg>