<svg id="visual" viewBox="0 0 1100 30" width="1100" height="30" xmlns="http://www.w3.org/2000/svg" xmlns:xlink="http://www.w3.org/1999/xlink" version="1.1"><rect x="0" y="0" width="1100" height="30" fill="#ffff00"></rect><path d="M0 6L20.3 6C40.7 6 81.3 6 122 7C162.7 8 203.3 10 244.2 9.8C285 9.7 326 7.3 366.8 6.3C407.7 5.3 448.3 5.7 489 6.8C529.7 8 570.3 10 611 11C651.7 12 692.3 12 733.2 10.7C774 9.3 815 6.7 855.8 5.3C896.7 4 937.3 4 978 4.2C1018.7 4.3 1059.3 4.7 1079.7 4.8L1100 5L1100 0L1079.7 0C1059.3 0 1018.7 0 978 0C937.3 0 896.7 0 855.8 0C815 0 774 0 733.2 0C692.3 0 651.7 0 611 0C570.3 0 529.7 0 489 0C448.3 0 407.7 0 366.8 0C326 0 285 0 244.2 0C203.3 0 162.7 0 122 0C81.3 0 40.7 0 20.3 0L0 0Z" fill="#808080" stroke-linecap="round" stroke-linejoin="miter"></path></svg>