<svg id="visual" viewBox="0 0 1100 100" width="1100" height="100" xmlns="http://www.w3.org/2000/svg" xmlns:xlink="http://www.w3.org/1999/xlink" version="1.1"><path d="M0 95L5.8 91.7C11.7 88.3 23.3 81.7 35.2 75.7C47 69.7 59 64.3 70.8 64.7C82.7 65 94.3 71 106.2 72.5C118 74 130 71 141.8 69.3C153.7 67.7 165.3 67.3 177.2 71C189 74.7 201 82.3 212.8 79.8C224.7 77.3 236.3 64.7 248.2 64.3C260 64 272 76 283.8 81.8C295.7 87.7 307.3 87.3 319.2 87.3C331 87.3 343 87.7 354.8 84.3C366.7 81 378.3 74 390.2 70C402 66 414 65 425.8 64C437.7 63 449.3 62 461.2 66C473 70 485 79 496.8 79C508.7 79 520.3 70 532.2 70C544 70 556 79 567.8 80.7C579.7 82.3 591.3 76.7 603.2 75.2C615 73.7 627 76.3 638.8 76.5C650.7 76.7 662.3 74.3 674.2 76.3C686 78.3 698 84.7 709.8 87.5C721.7 90.3 733.3 89.7 745.2 85.5C757 81.3 769 73.7 780.8 67.8C792.7 62 804.3 58 816.2 55.7C828 53.3 840 52.7 851.8 58.7C863.7 64.7 875.3 77.3 887.2 81.5C899 85.7 911 81.3 922.8 80.5C934.7 79.7 946.3 82.3 958.2 83.5C970 84.7 982 84.3 993.8 84.7C1005.7 85 1017.3 86 1029.2 80.8C1041 75.7 1053 64.3 1064.8 61.7C1076.7 59 1088.3 65 1094.2 68L1100 71L1100 101L1094.2 101C1088.3 101 1076.7 101 1064.8 101C1053 101 1041 101 1029.2 101C1017.3 101 1005.7 101 993.8 101C982 101 970 101 958.2 101C946.3 101 934.7 101 922.8 101C911 101 899 101 887.2 101C875.3 101 863.7 101 851.8 101C840 101 828 101 816.2 101C804.3 101 792.7 101 780.8 101C769 101 757 101 745.2 101C733.3 101 721.7 101 709.8 101C698 101 686 101 674.2 101C662.3 101 650.7 101 638.8 101C627 101 615 101 603.2 101C591.3 101 579.7 101 567.8 101C556 101 544 101 532.2 101C520.3 101 508.7 101 496.8 101C485 101 473 101 461.2 101C449.3 101 437.7 101 425.8 101C414 101 402 101 390.2 101C378.3 101 366.7 101 354.8 101C343 101 331 101 319.2 101C307.3 101 295.7 101 283.8 101C272 101 260 101 248.2 101C236.3 101 224.7 101 212.8 101C201 101 189 101 177.2 101C165.3 101 153.7 101 141.8 101C130 101 118 101 106.2 101C94.3 101 82.7 101 70.8 101C59 101 47 101 35.2 101C23.3 101 11.7 101 5.8 101L0 101Z" fill="#262626" stroke-linecap="round" stroke-linejoin="miter"></path></svg>